<svg width="20" height="20" viewBox="0 0 20 20" fill="none" xmlns="http://www.w3.org/2000/svg">
<path d="M12.0833 16.6667L17.6636 7.73477C18.0596 7.10095 17.9852 6.28102 17.4817 5.72876L15.1827 3.20722M15.1827 3.20722V3.20722C15.0946 3.1106 14.9699 3.05554 14.8391 3.05554H11.0631C10.8283 3.05554 10.6044 3.15459 10.4465 3.32831L4.06679 10.346C3.94513 10.4798 4.04009 10.6944 4.22095 10.6944H10L15.1827 3.20722Z" stroke="#292D32" stroke-width="1.25"/>
<path d="M2.01141 15.8589C2.69192 13.7506 3.68815 10.8258 3.8265 10.6945L9.73005 10.7834C10.0766 10.7887 10.3838 11.0079 10.5014 11.3339L12.1003 15.7665C12.2954 16.3075 11.8968 16.8789 11.3217 16.8826L2.80592 16.9372C2.24204 16.9408 1.83819 16.3956 2.01141 15.8589Z" stroke="#292D32" stroke-width="1.25"/>
</svg>
