<svg width="24" height="24" viewBox="0 0 24 24" fill="none" xmlns="http://www.w3.org/2000/svg">
<path d="M14.5 20.0001L21.3303 9.06737C21.7263 8.43355 21.6519 7.61362 21.1484 7.06136L18.2192 3.8487M18.2192 3.8487V3.8487C18.1135 3.73276 17.9638 3.66669 17.8069 3.66669H13.202C12.9672 3.66669 12.7433 3.76573 12.5854 3.93946L4.81679 12.4849C4.69513 12.6187 4.79009 12.8334 4.97095 12.8334H12L18.2192 3.8487Z" stroke="#A1A1A1" stroke-width="1.25"/>
<path d="M2.34361 19.2482C3.16008 16.7071 4.42094 12.9955 4.59178 12.8333L11.7912 12.9418C12.1378 12.947 12.4449 13.1663 12.5626 13.4923L14.6003 19.1415C14.7954 19.6825 14.3968 20.2538 13.8217 20.2575L3.13923 20.326C2.57535 20.3296 2.17111 19.7851 2.34361 19.2482Z" stroke="#A1A1A1" stroke-width="1.25"/>
</svg>
