<svg width="20" height="20" viewBox="0 0 20 20" fill="none" xmlns="http://www.w3.org/2000/svg">
<path d="M19.1666 13.3083C19.1666 16.5333 16.5583 19.1417 13.3333 19.1417L14.2083 17.6833" stroke="#404040" stroke-width="1.25" stroke-linecap="round" stroke-linejoin="round"/>
<path d="M0.833313 6.64165C0.833313 3.41665 3.44165 0.808319 6.66665 0.808319L5.79165 2.26665" stroke="#404040" stroke-width="1.25" stroke-linecap="round" stroke-linejoin="round"/>
<path d="M12.375 12.775C12.375 15.6167 10.075 17.9167 7.23334 17.9167C4.39168 17.9167 2.09167 15.6167 2.09167 12.775C2.09167 9.93337 4.39168 7.63333 7.23334 7.63333C7.36668 7.63333 7.49168 7.64168 7.63334 7.65001C10.1583 7.84168 12.175 9.85834 12.3667 12.3833C12.3667 12.5083 12.375 12.6334 12.375 12.775Z" stroke="#292D32" stroke-width="1.5" stroke-miterlimit="10" stroke-linecap="round" stroke-linejoin="round"/>
<path d="M17.9167 7.225C17.9167 10.0667 15.6167 12.3667 12.775 12.3667H12.3667C12.175 9.8417 10.1584 7.82499 7.63336 7.63332V7.225C7.63336 4.38333 9.93336 2.08334 12.775 2.08334C15.6167 2.08334 17.9167 4.38333 17.9167 7.225Z" stroke="#292D32" stroke-width="1.5" stroke-miterlimit="10" stroke-linecap="round" stroke-linejoin="round"/>
</svg>
