<svg width="22" height="22" viewBox="0 0 22 22" fill="none" xmlns="http://www.w3.org/2000/svg">
<path d="M21 11.91V10.5238C21 5.26381 16.523 1 11 1C5.477 1 1 5.26381 1 10.5238V11.91M17.978 9.81571C17.693 6.48095 14.678 3.85714 11 3.85714C7.322 3.85714 4.307 6.48095 4.022 9.81571" stroke="#1E2939" stroke-linecap="round" stroke-linejoin="round"/>
<path d="M19.5985 16.611C20.4405 16.4105 21 15.6786 21 14.8524V11.9105C21 11.0839 20.4405 10.3515 19.5985 10.151C18.7855 9.95719 17.7175 9.73958 16.6675 9.63481C15.9485 9.56291 15.3155 9.96434 15.196 10.6429C15.091 11.2353 15 12.1148 15 13.381C15 14.6477 15.0915 15.5272 15.196 16.1191C15.316 16.7977 15.9485 17.1991 16.6675 17.1277C17.7175 17.0229 18.7855 16.8048 19.5985 16.611Z" stroke="#4D84D5" stroke-linecap="round" stroke-linejoin="round"/>
<path d="M11 21.0001C18.25 21.0001 21 19.5715 21 14.3334M2.4015 16.611C1.5595 16.4105 1 15.6786 1 14.8524V11.9105C1 11.0839 1.5595 10.3515 2.4015 10.151C3.2145 9.95719 4.2825 9.73958 5.3325 9.63481C6.0515 9.56291 6.6845 9.96434 6.804 10.6429C6.909 11.2353 7 12.1148 7 13.381C7 14.6477 6.9085 15.5272 6.804 16.1191C6.684 16.7977 6.0515 17.1991 5.3325 17.1277C4.2825 17.0229 3.2145 16.8048 2.4015 16.611Z" stroke="#4D84D5" stroke-linecap="round" stroke-linejoin="round"/>
<path d="M2.4015 16.6109C1.5595 16.4105 1 15.6786 1 14.8524V11.9105C1 11.0838 1.5595 10.3514 2.4015 10.1509C3.2145 9.95713 4.2825 9.73951 5.3325 9.63475C6.0515 9.56284 6.6845 9.96427 6.804 10.6428C6.909 11.2352 7 12.1147 7 13.3809C7 14.6476 6.9085 15.5271 6.804 16.119C6.684 16.7976 6.0515 17.199 5.3325 17.1276C4.2825 17.0228 3.2145 16.8047 2.4015 16.6109Z" stroke="#4D84D5" stroke-linecap="round" stroke-linejoin="round"/>
</svg>
