<svg width="16" height="16" viewBox="0 0 16 16" fill="none" xmlns="http://www.w3.org/2000/svg">
<path d="M9.33333 13.3334L13.9441 6.41455C14.3686 5.77747 14.3046 4.9331 13.7888 4.36737L12.1461 2.56578M12.1461 2.56578V2.56578C12.0757 2.48849 11.9759 2.44444 11.8713 2.44444H8.9242C8.68941 2.44444 8.46552 2.54349 8.30758 2.71722L3.31679 8.20708C3.19513 8.34091 3.29009 8.55555 3.47095 8.55555H8L12.1461 2.56578Z" stroke="#F9FAFB" stroke-width="1.25"/>
<path d="M1.67925 12.4705C2.21951 10.8072 2.95517 8.65622 3.06119 8.55556L7.66885 8.625C8.01542 8.63023 8.32257 8.84943 8.44018 9.17548L9.60023 12.3915C9.79538 12.9325 9.3968 13.5039 8.82168 13.5076L2.47256 13.5483C1.90869 13.5519 1.50506 13.0068 1.67925 12.4705Z" stroke="#F9FAFB" stroke-width="1.25"/>
</svg>
