<svg width="20" height="20" viewBox="0 0 20 20" fill="none" xmlns="http://www.w3.org/2000/svg">
<path d="M18.3334 10V14.1667C18.3334 16.6667 16.6667 18.3333 14.1667 18.3333H5.83335C3.33335 18.3333 1.66669 16.6667 1.66669 14.1667V10C1.66669 7.73334 3.03335 6.15001 5.15835 5.88334C5.37502 5.85001 5.60002 5.83334 5.83335 5.83334H14.1667C14.3834 5.83334 14.5917 5.84167 14.7917 5.875C16.9417 6.125 18.3334 7.71668 18.3334 10Z" stroke="#404040" stroke-width="1.25" stroke-linecap="round" stroke-linejoin="round"/>
<path d="M14.7928 5.87499C14.5928 5.84166 14.3845 5.83333 14.1678 5.83333H5.83448C5.60115 5.83333 5.37615 5.85 5.15948 5.88333C5.27615 5.65 5.44282 5.43333 5.64282 5.23333L8.35115 2.51666C9.49282 1.38332 11.3428 1.38332 12.4845 2.51666L13.9428 3.99167C14.4762 4.51667 14.7595 5.18332 14.7928 5.87499Z" stroke="#404040" stroke-width="1.25" stroke-linecap="round" stroke-linejoin="round"/>
<path d="M18.3334 10.4167H15.8334C14.9167 10.4167 14.1667 11.1667 14.1667 12.0833C14.1667 13 14.9167 13.75 15.8334 13.75H18.3334" stroke="#404040" stroke-width="1.25" stroke-linecap="round" stroke-linejoin="round"/>
</svg>
