<svg width="16" height="16" viewBox="0 0 16 16" fill="none" xmlns="http://www.w3.org/2000/svg">
<path d="M14.6667 8.00001V11.3333C14.6667 13.3333 13.3333 14.6667 11.3333 14.6667H4.66666C2.66666 14.6667 1.33333 13.3333 1.33333 11.3333V8.00001C1.33333 6.18667 2.42666 4.92 4.12666 4.70667C4.3 4.68 4.48 4.66667 4.66666 4.66667H11.3333C11.5067 4.66667 11.6733 4.67333 11.8333 4.7C13.5533 4.9 14.6667 6.17334 14.6667 8.00001Z" stroke="#FAFAFA" stroke-width="1.5" stroke-linecap="round" stroke-linejoin="round"/>
<path d="M11.8343 4.69999C11.6743 4.67333 11.5076 4.66667 11.3343 4.66667H4.66761C4.48094 4.66667 4.30094 4.68 4.12761 4.70667C4.22094 4.52 4.35428 4.34667 4.51428 4.18667L6.68094 2.01333C7.59428 1.10666 9.07428 1.10666 9.98761 2.01333L11.1543 3.19334C11.5809 3.61334 11.8076 4.14666 11.8343 4.69999Z" stroke="#FAFAFA" stroke-width="1.5" stroke-linecap="round" stroke-linejoin="round"/>
<path d="M14.6667 8.33333H12.6667C11.9333 8.33333 11.3333 8.93333 11.3333 9.66666C11.3333 10.4 11.9333 11 12.6667 11H14.6667" stroke="#FAFAFA" stroke-width="1.5" stroke-linecap="round" stroke-linejoin="round"/>
</svg>
